<svg xmlns="http://www.w3.org/2000/svg" width="1024" height="1024" viewBox="0 0 1024 1024">
<defs>
  <linearGradient id="bg" x1="0" y1="0" x2="1" y2="1">
    <stop offset="0" stop-color="#2A86A6"/>
    <stop offset="0.55" stop-color="#1F6E8C"/>
    <stop offset="1" stop-color="#134B5F"/>
  </linearGradient>
  <radialGradient id="glow" cx="0.3" cy="0.22" r="0.75">
    <stop offset="0" stop-color="#FFFFFF" stop-opacity="0.18"/>
    <stop offset="1" stop-color="#FFFFFF" stop-opacity="0"/>
  </radialGradient>
  <radialGradient id="shadow" cx="0.5" cy="0.5" r="0.5">
    <stop offset="0" stop-color="#062C3A" stop-opacity="0.55"/>
    <stop offset="1" stop-color="#062C3A" stop-opacity="0"/>
  </radialGradient>
  <linearGradient id="left" x1="0" y1="0" x2="0" y2="1">
    <stop offset="0" stop-color="#EAF3F6"/><stop offset="1" stop-color="#D3E4EA"/>
  </linearGradient>
  <linearGradient id="right" x1="0" y1="0" x2="0" y2="1">
    <stop offset="0" stop-color="#C6DBE3"/><stop offset="1" stop-color="#A9C7D2"/>
  </linearGradient>
</defs>
<rect width="1024" height="1024" fill="url(#bg)"/>
<rect width="1024" height="1024" fill="url(#glow)"/>
<!-- Steuerrad / Kompassring -->
<circle cx="512" cy="512" r="356" fill="none" stroke="#FFFFFF" stroke-opacity="0.9" stroke-width="38"/>
<circle cx="512" cy="512" r="356" fill="#FFFFFF" fill-opacity="0.06"/>
<path d="M512,36 L560,122 L464,122 Z" fill="#F2A93B"/>
<line x1="775.0" y1="249.0" x2="817.5" y2="206.5" stroke="#FFFFFF" stroke-opacity="0.9" stroke-width="38" stroke-linecap="round"/>
<circle cx="823.1" cy="200.9" r="34" fill="#FFFFFF" fill-opacity="0.9"/>
<line x1="884.0" y1="512.0" x2="944.0" y2="512.0" stroke="#FFFFFF" stroke-opacity="0.9" stroke-width="38" stroke-linecap="round"/>
<circle cx="952.0" cy="512.0" r="34" fill="#FFFFFF" fill-opacity="0.9"/>
<line x1="775.0" y1="775.0" x2="817.5" y2="817.5" stroke="#FFFFFF" stroke-opacity="0.9" stroke-width="38" stroke-linecap="round"/>
<circle cx="823.1" cy="823.1" r="34" fill="#FFFFFF" fill-opacity="0.9"/>
<line x1="512.0" y1="884.0" x2="512.0" y2="944.0" stroke="#FFFFFF" stroke-opacity="0.9" stroke-width="38" stroke-linecap="round"/>
<circle cx="512.0" cy="952.0" r="34" fill="#FFFFFF" fill-opacity="0.9"/>
<line x1="249.0" y1="775.0" x2="206.5" y2="817.5" stroke="#FFFFFF" stroke-opacity="0.9" stroke-width="38" stroke-linecap="round"/>
<circle cx="200.9" cy="823.1" r="34" fill="#FFFFFF" fill-opacity="0.9"/>
<line x1="140.0" y1="512.0" x2="80.0" y2="512.0" stroke="#FFFFFF" stroke-opacity="0.9" stroke-width="38" stroke-linecap="round"/>
<circle cx="72.0" cy="512.0" r="34" fill="#FFFFFF" fill-opacity="0.9"/>
<line x1="249.0" y1="249.0" x2="206.5" y2="206.5" stroke="#FFFFFF" stroke-opacity="0.9" stroke-width="38" stroke-linecap="round"/>
<circle cx="200.9" cy="200.9" r="34" fill="#FFFFFF" fill-opacity="0.9"/>
<g transform="translate(512 520) scale(1.22) translate(-512 -520)">
<!-- Schatten -->
<ellipse cx="512" cy="742" rx="215" ry="46" fill="url(#shadow)"/>
<!-- Paket (isometrisch) -->
<path d="M312,400 L512,500 L512,730 L312,630 Z" fill="url(#left)"/>
<path d="M512,500 L712,400 L712,630 L512,730 Z" fill="url(#right)"/>
<path d="M512,300 L712,400 L512,500 L312,400 Z" fill="#FFFFFF"/>
<!-- Klebeband -->
<path d="M396,442 L596,342 L628,358 L428,458 Z" fill="#F2A93B"/>
<path d="M396,442 L428,458 L428,688 L396,672 Z" fill="#DA8F22"/>
<!-- Kanten -->
<path d="M312,400 L512,500 L712,400 M512,500 L512,730" fill="none" stroke="#134B5F" stroke-opacity="0.18" stroke-width="4" stroke-linejoin="round"/>
</g>
</svg>